<mxfile host="app.diagrams.net" agent="Mozilla/5.0 (Windows NT 10.0; Win64; x64; rv:139.0) Gecko/20100101 Firefox/139.0" version="26.2.14">
  <diagram name="Page-1" id="tnv9n79VqI7hQDUwdvjI">
    <mxGraphModel dx="1188" dy="633" grid="1" gridSize="10" guides="1" tooltips="1" connect="1" arrows="1" fold="1" page="1" pageScale="1" pageWidth="850" pageHeight="1100" math="0" shadow="0">
      <root>
        <mxCell id="0" />
        <mxCell id="1" parent="0" />
        <mxCell id="hMEnsq1SfWotsO9ItwzC-3" style="edgeStyle=orthogonalEdgeStyle;rounded=0;orthogonalLoop=1;jettySize=auto;html=1;entryX=0;entryY=0.5;entryDx=0;entryDy=0;" edge="1" parent="1" source="hMEnsq1SfWotsO9ItwzC-2">
          <mxGeometry relative="1" as="geometry">
            <mxPoint x="600" y="240" as="targetPoint" />
          </mxGeometry>
        </mxCell>
        <mxCell id="hMEnsq1SfWotsO9ItwzC-2" value="Input" style="text;html=1;align=center;verticalAlign=middle;whiteSpace=wrap;rounded=0;fontStyle=1" vertex="1" parent="1">
          <mxGeometry x="550" y="225" width="30" height="30" as="geometry" />
        </mxCell>
        <mxCell id="hMEnsq1SfWotsO9ItwzC-35" style="edgeStyle=orthogonalEdgeStyle;rounded=0;orthogonalLoop=1;jettySize=auto;html=1;exitX=1;exitY=0.5;exitDx=0;exitDy=0;entryX=0;entryY=0.5;entryDx=0;entryDy=0;" edge="1" parent="1" source="hMEnsq1SfWotsO9ItwzC-11" target="hMEnsq1SfWotsO9ItwzC-12">
          <mxGeometry relative="1" as="geometry" />
        </mxCell>
        <mxCell id="hMEnsq1SfWotsO9ItwzC-110" style="rounded=0;orthogonalLoop=1;jettySize=auto;html=1;exitX=1;exitY=0;exitDx=0;exitDy=0;entryX=0;entryY=0;entryDx=0;entryDy=0;endArrow=none;startFill=0;dashed=1;dashPattern=8 8;" edge="1" parent="1" source="hMEnsq1SfWotsO9ItwzC-11" target="hMEnsq1SfWotsO9ItwzC-12">
          <mxGeometry relative="1" as="geometry" />
        </mxCell>
        <mxCell id="hMEnsq1SfWotsO9ItwzC-11" value="&lt;br&gt;&lt;div&gt;Conv&lt;/div&gt;&lt;div&gt;5x5&lt;/div&gt;&lt;div&gt;32&lt;/div&gt;&lt;div&gt;&lt;br&gt;&lt;/div&gt;" style="rounded=0;whiteSpace=wrap;html=1;fillColor=#ffe6cc;strokeColor=#d79b00;" vertex="1" parent="1">
          <mxGeometry x="600" y="90" width="30" height="300" as="geometry" />
        </mxCell>
        <mxCell id="hMEnsq1SfWotsO9ItwzC-108" style="edgeStyle=orthogonalEdgeStyle;rounded=0;orthogonalLoop=1;jettySize=auto;html=1;entryX=0;entryY=0.5;entryDx=0;entryDy=0;" edge="1" parent="1" source="hMEnsq1SfWotsO9ItwzC-12" target="hMEnsq1SfWotsO9ItwzC-14">
          <mxGeometry relative="1" as="geometry" />
        </mxCell>
        <mxCell id="hMEnsq1SfWotsO9ItwzC-12" value="Maxpool /2" style="rounded=0;whiteSpace=wrap;html=1;fillColor=#f8cecc;strokeColor=#b85450;horizontal=0;" vertex="1" parent="1">
          <mxGeometry x="650" y="140" width="30" height="200" as="geometry" />
        </mxCell>
        <mxCell id="hMEnsq1SfWotsO9ItwzC-38" style="edgeStyle=orthogonalEdgeStyle;rounded=0;orthogonalLoop=1;jettySize=auto;html=1;exitX=1;exitY=0.5;exitDx=0;exitDy=0;entryX=0;entryY=0.5;entryDx=0;entryDy=0;" edge="1" parent="1" source="hMEnsq1SfWotsO9ItwzC-14" target="hMEnsq1SfWotsO9ItwzC-15">
          <mxGeometry relative="1" as="geometry" />
        </mxCell>
        <mxCell id="hMEnsq1SfWotsO9ItwzC-14" value="&lt;br&gt;&lt;div&gt;Conv&lt;/div&gt;&lt;div&gt;3x3&lt;/div&gt;&lt;div&gt;64&lt;/div&gt;&lt;div&gt;&lt;br&gt;&lt;/div&gt;" style="rounded=0;whiteSpace=wrap;html=1;fillColor=#ffe6cc;strokeColor=#d79b00;" vertex="1" parent="1">
          <mxGeometry x="700" y="140" width="30" height="200" as="geometry" />
        </mxCell>
        <mxCell id="hMEnsq1SfWotsO9ItwzC-106" value="" style="edgeStyle=orthogonalEdgeStyle;rounded=0;orthogonalLoop=1;jettySize=auto;html=1;" edge="1" parent="1" source="hMEnsq1SfWotsO9ItwzC-15" target="hMEnsq1SfWotsO9ItwzC-19">
          <mxGeometry relative="1" as="geometry" />
        </mxCell>
        <mxCell id="hMEnsq1SfWotsO9ItwzC-15" value="Maxpool /2" style="rounded=0;whiteSpace=wrap;html=1;fillColor=#f8cecc;strokeColor=#b85450;horizontal=0;" vertex="1" parent="1">
          <mxGeometry x="750" y="190" width="30" height="100" as="geometry" />
        </mxCell>
        <mxCell id="hMEnsq1SfWotsO9ItwzC-42" style="edgeStyle=orthogonalEdgeStyle;rounded=0;orthogonalLoop=1;jettySize=auto;html=1;exitX=1;exitY=0.5;exitDx=0;exitDy=0;entryX=0;entryY=0.5;entryDx=0;entryDy=0;" edge="1" parent="1" source="hMEnsq1SfWotsO9ItwzC-18" target="hMEnsq1SfWotsO9ItwzC-19">
          <mxGeometry relative="1" as="geometry" />
        </mxCell>
        <mxCell id="hMEnsq1SfWotsO9ItwzC-18" value="&lt;div&gt;Conv&lt;/div&gt;&lt;div&gt;3x3&lt;/div&gt;&lt;div&gt;128&lt;/div&gt;" style="rounded=0;whiteSpace=wrap;html=1;fillColor=#ffe6cc;strokeColor=#d79b00;" vertex="1" parent="1">
          <mxGeometry x="800" y="190" width="30" height="100" as="geometry" />
        </mxCell>
        <mxCell id="hMEnsq1SfWotsO9ItwzC-21" value="" style="edgeStyle=orthogonalEdgeStyle;rounded=0;orthogonalLoop=1;jettySize=auto;html=1;" edge="1" parent="1" source="hMEnsq1SfWotsO9ItwzC-19" target="hMEnsq1SfWotsO9ItwzC-20">
          <mxGeometry relative="1" as="geometry" />
        </mxCell>
        <mxCell id="hMEnsq1SfWotsO9ItwzC-19" value="Maxpool /2" style="rounded=0;whiteSpace=wrap;html=1;fillColor=#f8cecc;strokeColor=#b85450;horizontal=0;" vertex="1" parent="1">
          <mxGeometry x="850" y="210" width="30" height="60" as="geometry" />
        </mxCell>
        <mxCell id="hMEnsq1SfWotsO9ItwzC-102" value="" style="edgeStyle=orthogonalEdgeStyle;rounded=0;orthogonalLoop=1;jettySize=auto;html=1;" edge="1" parent="1" source="hMEnsq1SfWotsO9ItwzC-20" target="hMEnsq1SfWotsO9ItwzC-22">
          <mxGeometry relative="1" as="geometry" />
        </mxCell>
        <mxCell id="hMEnsq1SfWotsO9ItwzC-20" value="Flatten" style="text;html=1;align=center;verticalAlign=middle;whiteSpace=wrap;rounded=0;" vertex="1" parent="1">
          <mxGeometry x="910" y="225" width="40" height="30" as="geometry" />
        </mxCell>
        <mxCell id="hMEnsq1SfWotsO9ItwzC-103" value="" style="edgeStyle=orthogonalEdgeStyle;rounded=0;orthogonalLoop=1;jettySize=auto;html=1;" edge="1" parent="1" source="hMEnsq1SfWotsO9ItwzC-22" target="hMEnsq1SfWotsO9ItwzC-93">
          <mxGeometry relative="1" as="geometry" />
        </mxCell>
        <mxCell id="hMEnsq1SfWotsO9ItwzC-22" value="Fully Connected" style="rounded=0;whiteSpace=wrap;html=1;fillColor=#d5e8d4;strokeColor=#82b366;horizontal=1;" vertex="1" parent="1">
          <mxGeometry x="970" y="220" width="100" height="40" as="geometry" />
        </mxCell>
        <mxCell id="hMEnsq1SfWotsO9ItwzC-105" value="" style="edgeStyle=orthogonalEdgeStyle;rounded=0;orthogonalLoop=1;jettySize=auto;html=1;" edge="1" parent="1" source="hMEnsq1SfWotsO9ItwzC-93" target="hMEnsq1SfWotsO9ItwzC-104">
          <mxGeometry relative="1" as="geometry" />
        </mxCell>
        <mxCell id="hMEnsq1SfWotsO9ItwzC-93" value="Fully Connected" style="rounded=0;whiteSpace=wrap;html=1;fillColor=#d5e8d4;strokeColor=#82b366;horizontal=1;" vertex="1" parent="1">
          <mxGeometry x="1090" y="220" width="100" height="40" as="geometry" />
        </mxCell>
        <mxCell id="hMEnsq1SfWotsO9ItwzC-128" style="edgeStyle=orthogonalEdgeStyle;rounded=0;orthogonalLoop=1;jettySize=auto;html=1;" edge="1" parent="1" source="hMEnsq1SfWotsO9ItwzC-104">
          <mxGeometry relative="1" as="geometry">
            <mxPoint x="1330" y="240" as="targetPoint" />
          </mxGeometry>
        </mxCell>
        <mxCell id="hMEnsq1SfWotsO9ItwzC-104" value="Softmax" style="rounded=0;whiteSpace=wrap;html=1;horizontal=1;fillColor=#f5f5f5;fontColor=#333333;strokeColor=#666666;" vertex="1" parent="1">
          <mxGeometry x="1210" y="220" width="100" height="40" as="geometry" />
        </mxCell>
        <mxCell id="hMEnsq1SfWotsO9ItwzC-111" style="rounded=0;orthogonalLoop=1;jettySize=auto;html=1;exitX=1;exitY=1;exitDx=0;exitDy=0;entryX=0;entryY=1;entryDx=0;entryDy=0;endArrow=none;startFill=0;dashed=1;dashPattern=8 8;" edge="1" parent="1" source="hMEnsq1SfWotsO9ItwzC-11" target="hMEnsq1SfWotsO9ItwzC-12">
          <mxGeometry relative="1" as="geometry">
            <mxPoint x="690" y="420" as="sourcePoint" />
            <mxPoint x="710" y="470" as="targetPoint" />
          </mxGeometry>
        </mxCell>
        <mxCell id="hMEnsq1SfWotsO9ItwzC-112" style="rounded=0;orthogonalLoop=1;jettySize=auto;html=1;exitX=1;exitY=0;exitDx=0;exitDy=0;entryX=0;entryY=0;entryDx=0;entryDy=0;endArrow=none;startFill=0;dashed=1;dashPattern=8 8;" edge="1" parent="1" source="hMEnsq1SfWotsO9ItwzC-12" target="hMEnsq1SfWotsO9ItwzC-14">
          <mxGeometry relative="1" as="geometry">
            <mxPoint x="650" y="110" as="sourcePoint" />
            <mxPoint x="670" y="160" as="targetPoint" />
          </mxGeometry>
        </mxCell>
        <mxCell id="hMEnsq1SfWotsO9ItwzC-113" style="rounded=0;orthogonalLoop=1;jettySize=auto;html=1;exitX=1;exitY=1;exitDx=0;exitDy=0;entryX=0;entryY=1;entryDx=0;entryDy=0;endArrow=none;startFill=0;dashed=1;dashPattern=8 8;" edge="1" parent="1" source="hMEnsq1SfWotsO9ItwzC-12" target="hMEnsq1SfWotsO9ItwzC-14">
          <mxGeometry relative="1" as="geometry">
            <mxPoint x="660" y="120" as="sourcePoint" />
            <mxPoint x="680" y="170" as="targetPoint" />
          </mxGeometry>
        </mxCell>
        <mxCell id="hMEnsq1SfWotsO9ItwzC-114" style="rounded=0;orthogonalLoop=1;jettySize=auto;html=1;exitX=0;exitY=1;exitDx=0;exitDy=0;entryX=1;entryY=1;entryDx=0;entryDy=0;endArrow=none;startFill=0;dashed=1;dashPattern=8 8;" edge="1" parent="1" source="hMEnsq1SfWotsO9ItwzC-15" target="hMEnsq1SfWotsO9ItwzC-14">
          <mxGeometry relative="1" as="geometry">
            <mxPoint x="670" y="130" as="sourcePoint" />
            <mxPoint x="690" y="180" as="targetPoint" />
          </mxGeometry>
        </mxCell>
        <mxCell id="hMEnsq1SfWotsO9ItwzC-115" style="rounded=0;orthogonalLoop=1;jettySize=auto;html=1;exitX=0;exitY=0;exitDx=0;exitDy=0;entryX=1;entryY=0;entryDx=0;entryDy=0;endArrow=none;startFill=0;dashed=1;dashPattern=8 8;" edge="1" parent="1" source="hMEnsq1SfWotsO9ItwzC-15" target="hMEnsq1SfWotsO9ItwzC-14">
          <mxGeometry relative="1" as="geometry">
            <mxPoint x="680" y="140" as="sourcePoint" />
            <mxPoint x="700" y="190" as="targetPoint" />
          </mxGeometry>
        </mxCell>
        <mxCell id="hMEnsq1SfWotsO9ItwzC-116" style="rounded=0;orthogonalLoop=1;jettySize=auto;html=1;exitX=1;exitY=0;exitDx=0;exitDy=0;entryX=0;entryY=0;entryDx=0;entryDy=0;endArrow=none;startFill=0;dashed=1;dashPattern=8 8;" edge="1" parent="1" source="hMEnsq1SfWotsO9ItwzC-15" target="hMEnsq1SfWotsO9ItwzC-18">
          <mxGeometry relative="1" as="geometry">
            <mxPoint x="690" y="150" as="sourcePoint" />
            <mxPoint x="710" y="200" as="targetPoint" />
          </mxGeometry>
        </mxCell>
        <mxCell id="hMEnsq1SfWotsO9ItwzC-117" style="rounded=0;orthogonalLoop=1;jettySize=auto;html=1;exitX=0;exitY=1;exitDx=0;exitDy=0;entryX=1;entryY=1;entryDx=0;entryDy=0;endArrow=none;startFill=0;dashed=1;dashPattern=8 8;" edge="1" parent="1" source="hMEnsq1SfWotsO9ItwzC-18" target="hMEnsq1SfWotsO9ItwzC-15">
          <mxGeometry relative="1" as="geometry">
            <mxPoint x="700" y="160" as="sourcePoint" />
            <mxPoint x="720" y="210" as="targetPoint" />
          </mxGeometry>
        </mxCell>
        <mxCell id="hMEnsq1SfWotsO9ItwzC-118" style="rounded=0;orthogonalLoop=1;jettySize=auto;html=1;exitX=1;exitY=0;exitDx=0;exitDy=0;entryX=0;entryY=0;entryDx=0;entryDy=0;endArrow=none;startFill=0;dashed=1;dashPattern=8 8;" edge="1" parent="1" source="hMEnsq1SfWotsO9ItwzC-18" target="hMEnsq1SfWotsO9ItwzC-19">
          <mxGeometry relative="1" as="geometry">
            <mxPoint x="710" y="170" as="sourcePoint" />
            <mxPoint x="730" y="220" as="targetPoint" />
          </mxGeometry>
        </mxCell>
        <mxCell id="hMEnsq1SfWotsO9ItwzC-119" style="rounded=0;orthogonalLoop=1;jettySize=auto;html=1;exitX=0;exitY=1;exitDx=0;exitDy=0;entryX=1;entryY=1;entryDx=0;entryDy=0;endArrow=none;startFill=0;dashed=1;dashPattern=8 8;" edge="1" parent="1" source="hMEnsq1SfWotsO9ItwzC-19" target="hMEnsq1SfWotsO9ItwzC-18">
          <mxGeometry relative="1" as="geometry">
            <mxPoint x="720" y="180" as="sourcePoint" />
            <mxPoint x="740" y="230" as="targetPoint" />
          </mxGeometry>
        </mxCell>
        <mxCell id="hMEnsq1SfWotsO9ItwzC-120" style="rounded=0;orthogonalLoop=1;jettySize=auto;html=1;exitX=1;exitY=0;exitDx=0;exitDy=0;entryX=0;entryY=0;entryDx=0;entryDy=0;endArrow=none;startFill=0;dashed=1;dashPattern=8 8;" edge="1" parent="1" source="hMEnsq1SfWotsO9ItwzC-19" target="hMEnsq1SfWotsO9ItwzC-20">
          <mxGeometry relative="1" as="geometry">
            <mxPoint x="730" y="190" as="sourcePoint" />
            <mxPoint x="750" y="240" as="targetPoint" />
          </mxGeometry>
        </mxCell>
        <mxCell id="hMEnsq1SfWotsO9ItwzC-121" style="rounded=0;orthogonalLoop=1;jettySize=auto;html=1;exitX=0;exitY=1;exitDx=0;exitDy=0;entryX=1;entryY=1;entryDx=0;entryDy=0;endArrow=none;startFill=0;dashed=1;dashPattern=8 8;" edge="1" parent="1" source="hMEnsq1SfWotsO9ItwzC-20" target="hMEnsq1SfWotsO9ItwzC-19">
          <mxGeometry relative="1" as="geometry">
            <mxPoint x="740" y="200" as="sourcePoint" />
            <mxPoint x="760" y="250" as="targetPoint" />
          </mxGeometry>
        </mxCell>
        <mxCell id="hMEnsq1SfWotsO9ItwzC-122" style="rounded=0;orthogonalLoop=1;jettySize=auto;html=1;exitX=0;exitY=0;exitDx=0;exitDy=0;entryX=1;entryY=0;entryDx=0;entryDy=0;endArrow=none;startFill=0;dashed=1;dashPattern=8 8;" edge="1" parent="1" source="hMEnsq1SfWotsO9ItwzC-22" target="hMEnsq1SfWotsO9ItwzC-20">
          <mxGeometry relative="1" as="geometry">
            <mxPoint x="750" y="210" as="sourcePoint" />
            <mxPoint x="770" y="260" as="targetPoint" />
          </mxGeometry>
        </mxCell>
        <mxCell id="hMEnsq1SfWotsO9ItwzC-123" style="rounded=0;orthogonalLoop=1;jettySize=auto;html=1;exitX=0;exitY=1;exitDx=0;exitDy=0;entryX=1;entryY=1;entryDx=0;entryDy=0;endArrow=none;startFill=0;dashed=1;dashPattern=8 8;" edge="1" parent="1" source="hMEnsq1SfWotsO9ItwzC-22" target="hMEnsq1SfWotsO9ItwzC-20">
          <mxGeometry relative="1" as="geometry">
            <mxPoint x="760" y="220" as="sourcePoint" />
            <mxPoint x="780" y="270" as="targetPoint" />
          </mxGeometry>
        </mxCell>
        <mxCell id="hMEnsq1SfWotsO9ItwzC-124" style="rounded=0;orthogonalLoop=1;jettySize=auto;html=1;exitX=0;exitY=0;exitDx=0;exitDy=0;entryX=1;entryY=0;entryDx=0;entryDy=0;endArrow=none;startFill=0;dashed=1;dashPattern=8 8;" edge="1" parent="1" source="hMEnsq1SfWotsO9ItwzC-93" target="hMEnsq1SfWotsO9ItwzC-22">
          <mxGeometry relative="1" as="geometry">
            <mxPoint x="770" y="230" as="sourcePoint" />
            <mxPoint x="790" y="280" as="targetPoint" />
          </mxGeometry>
        </mxCell>
        <mxCell id="hMEnsq1SfWotsO9ItwzC-125" style="rounded=0;orthogonalLoop=1;jettySize=auto;html=1;exitX=0;exitY=1;exitDx=0;exitDy=0;entryX=1;entryY=1;entryDx=0;entryDy=0;endArrow=none;startFill=0;dashed=1;dashPattern=8 8;" edge="1" parent="1" source="hMEnsq1SfWotsO9ItwzC-93" target="hMEnsq1SfWotsO9ItwzC-22">
          <mxGeometry relative="1" as="geometry">
            <mxPoint x="1030" y="260" as="sourcePoint" />
            <mxPoint x="1050" y="310" as="targetPoint" />
          </mxGeometry>
        </mxCell>
        <mxCell id="hMEnsq1SfWotsO9ItwzC-126" style="rounded=0;orthogonalLoop=1;jettySize=auto;html=1;exitX=0;exitY=1;exitDx=0;exitDy=0;entryX=1;entryY=1;entryDx=0;entryDy=0;endArrow=none;startFill=0;dashed=1;dashPattern=8 8;" edge="1" parent="1" source="hMEnsq1SfWotsO9ItwzC-104" target="hMEnsq1SfWotsO9ItwzC-93">
          <mxGeometry relative="1" as="geometry">
            <mxPoint x="1040" y="270" as="sourcePoint" />
            <mxPoint x="1060" y="320" as="targetPoint" />
          </mxGeometry>
        </mxCell>
        <mxCell id="hMEnsq1SfWotsO9ItwzC-127" style="rounded=0;orthogonalLoop=1;jettySize=auto;html=1;exitX=0;exitY=0;exitDx=0;exitDy=0;entryX=1;entryY=0;entryDx=0;entryDy=0;endArrow=none;startFill=0;dashed=1;dashPattern=8 8;" edge="1" parent="1" source="hMEnsq1SfWotsO9ItwzC-104" target="hMEnsq1SfWotsO9ItwzC-93">
          <mxGeometry relative="1" as="geometry">
            <mxPoint x="1050" y="280" as="sourcePoint" />
            <mxPoint x="1070" y="330" as="targetPoint" />
          </mxGeometry>
        </mxCell>
      </root>
    </mxGraphModel>
  </diagram>
</mxfile>
